<svg id="Capa_1" enable-background="new 0 0 512 512" height="512" viewBox="0 0 512 512" width="512" xmlns="http://www.w3.org/2000/svg"><g><path d="m512 256c0 2.92-.05 5.82-.15 8.72v.01c-.04 1.39-3.735 3.713-3.805 5.093-.05.84-.09 1.69-.14 2.52-.1 1.68-.22 3.37-.35 5.04-.22 2.77-.48 5.53-.79 8.28-.3 2.75-.66 5.49-1.05 8.22-.24 1.65 3.145 2.367 2.865 4.007-.51 3.12-1.08 6.22-1.7 9.29-12.12 59.74-60.877 66.085-106.707 102.835-6.62 5.31 2.317 56.125-4.823 60.765 0 .01-.01.01-.01.01-40 26-87.71 41.14-138.96 41.21h-.38c-63.14 0-120.95-22.87-165.59-60.76-3.27-2.78-6.47-5.63-9.59-8.57-6.4-6.01-12.5-12.35-18.26-18.99-38.97-44.92-62.56-103.55-62.56-167.68 0-141.38 114.62-256 256-256 57.82 0 111.16 19.17 154.02 51.5 3.92 2.96 7.75 6.02 11.49 9.19 6.47 5.49 12.66 11.3 18.56 17.39 43.39 44.89 70.52 105.6 71.87 172.63.03 1.02.04 2.04.05 3.06.01.74.01 1.49.01 2.23z" fill="#5e54ac"/><path d="m512 256c0 2.92-.05 5.82-.15 8.72v.01c-.04 1.39-.1 2.79-.17 4.17-.17-.25-.33-.5-.48-.76-2.69-4.66-2.21-10.29.79-14.37.01.74.01 1.49.01 2.23z" fill="#407093"/><path d="m469.6 251.8v12.37c5.41 1.64 9.35 6.66 9.35 12.61 0 7.28-5.9 13.18-13.18 13.18s-13.18-5.9-13.18-13.18c0-5.95 3.94-10.97 9.36-12.61v-12.37c-13.39-.57-26.01-4.1-37.22-9.96l-6.18 10.7c3.86 4.13 4.77 10.45 1.79 15.6-3.64 6.3-11.7 8.46-18 4.82-6.31-3.64-8.47-11.7-4.83-18 2.98-5.15 8.9-7.53 14.41-6.25l6.18-10.7c-10.95-6.98-20.26-16.3-27.25-27.25l-10.7 6.18c1.29 5.51-1.09 11.44-6.24 14.41-6.31 3.64-14.37 1.48-18.01-4.82-3.64-6.31-1.48-14.37 4.83-18.01 5.15-2.97 11.47-2.07 15.59 1.8l10.7-6.18c-5.85-11.22-9.38-23.83-9.95-37.22h-12.38c-1.64 5.41-6.66 9.35-12.61 9.35-7.27 0-13.18-5.9-13.18-13.18s5.91-13.18 13.18-13.18c5.95 0 10.98 3.94 12.62 9.36h12.37c.57-13.39 4.1-26.01 9.95-37.22l-10.7-6.18c-4.12 3.86-10.44 4.77-15.59 1.79-6.31-3.64-8.47-11.7-4.83-18 3.64-6.31 11.7-8.47 18.01-4.83 5.15 2.98 7.53 8.9 6.24 14.41l10.7 6.18c6.99-10.95 16.3-20.27 27.25-27.25l-6.18-10.7c-5.51 1.29-11.43-1.09-14.41-6.25-3.64-6.3-1.48-14.36 4.83-18 2.42-1.4 5.09-1.94 7.68-1.72 3.92 2.96 7.75 6.02 11.49 9.19 1.43 4.54.26 9.52-2.96 12.95l6.18 10.7c4.87-2.53 9.99-4.64 15.34-6.26 43.39 44.89 70.52 105.6 71.87 172.63l-5.12-8.87c-11.22 5.86-23.83 9.39-37.22 9.96z" fill="#524798"/><path d="m297.29 489.76c0 7.28-5.9 13.18-13.18 13.18-5.95 0-10.97-3.94-12.61-9.35h-12.38c-.26 6.33-1.2 12.49-2.74 18.41h-.38c-63.14 0-120.95-22.87-165.59-60.76.4-.85.82-1.69 1.26-2.52l-10.7-6.18c-.05.05-.1.09-.15.13-6.4-6.01-12.5-12.35-18.26-18.99 4.11-4.18 10.68-5.24 15.99-2.17 5.15 2.97 7.53 8.89 6.25 14.4l10.7 6.18c6.98-10.95 16.3-20.26 27.25-27.24l-6.18-10.71c-5.51 1.29-11.44-1.09-14.41-6.24-3.64-6.31-1.48-14.37 4.82-18.01 6.31-3.64 14.37-1.48 18.01 4.83 2.97 5.15 2.07 11.47-1.8 15.6l6.18 10.7c11.22-5.86 23.83-9.39 37.22-9.96v-12.37c-5.41-1.64-9.35-6.67-9.35-12.61 0-7.28 5.9-13.18 13.18-13.18s13.18 5.9 13.18 13.18c0 5.94-3.94 10.97-9.35 12.61v12.37c13.38.57 26 4.1 37.21 9.96l6.18-10.71c-3.86-4.12-4.76-10.44-1.79-15.59 3.64-6.31 11.7-8.47 18-4.83 6.31 3.64 8.47 11.7 4.83 18.01-2.98 5.15-8.9 7.53-14.41 6.24l-6.18 10.71c10.95 6.98 20.26 16.29 27.25 27.24l10.7-6.18c-1.28-5.51 1.1-11.43 6.25-14.4 6.3-3.64 14.36-1.48 18 4.82s1.48 14.37-4.82 18c-5.16 2.98-11.48 2.08-15.6-1.79l-10.7 6.18c5.85 11.21 9.38 23.83 9.95 37.22h12.38c1.64-5.41 6.66-9.36 12.61-9.36 7.28 0 13.18 5.91 13.18 13.18z" fill="#524798"/><g><g fill="#ffd064"><path d="m451.077 376.403c-2.357 0-4.267-1.91-4.267-4.267v-109.934c0-2.357 1.91-4.267 4.267-4.267s4.267 1.911 4.267 4.267v109.933c0 2.358-1.91 4.268-4.267 4.268z"/><path d="m449.45 383.1-4.05 7.52-106.24-61.34c-2.04-1.18-2.74-3.79-1.56-5.83s3.79-2.74 5.83-1.56z"/><path d="m446.36 396.61-102.93 59.43c-.67.39-1.4.57-2.13.57-1.47 0-2.91-.76-3.7-2.13-1.18-2.04-.48-4.65 1.56-5.83l103.11-59.53z"/></g><path d="m506.88 307.18c-13.87 68.37-55 126.85-111.54 163.61-26.12-17.82-43.26-47.83-43.26-81.83 0-54.67 44.32-99 99-99 20.7 0 39.91 6.35 55.8 17.22z" fill="#dd5790"/><path d="m389.98 388.96c0 25.79 9.86 49.27 26.02 66.89-6.62 5.31-13.51 10.29-20.65 14.93-26.12-17.81-43.27-47.81-43.27-81.82 0-54.67 44.32-99 99-99 6.48 0 12.81.62 18.95 1.82-45.62 8.83-80.05 48.99-80.05 97.18z" fill="#da387d"/><path d="m411.688 324.999c-1.475 0-2.909-.765-3.699-2.134l-23.989-41.546c-1.178-2.041-.479-4.651 1.562-5.83s4.651-.479 5.83 1.562l23.989 41.546c1.178 2.041.479 4.651-1.562 5.83-.673.388-1.407.572-2.131.572z" fill="#ffd064"/><path d="m372.296 393.235h-47.984c-2.357 0-4.267-1.91-4.267-4.267s1.91-4.267 4.267-4.267h47.984c2.357 0 4.267 1.91 4.267 4.267s-1.91 4.267-4.267 4.267z" fill="#ffd064"/><path d="m511.19 276.46c-.22 2.77-.48 5.53-.79 8.28-.3 2.75-.66 5.49-1.05 8.22-.24 1.65-.49 3.29-.77 4.93l-14.41 24.97c-.79 1.37-2.23 2.13-3.7 2.13-.72 0-1.46-.18-2.13-.57-2.04-1.18-2.74-3.79-1.56-5.83l23.98-41.54c.12-.21.26-.41.43-.59z" fill="#ffd064"/><g><g><circle cx="341.297" cy="452.346" fill="#ffd064" r="14.696"/></g><g><circle cx="451.077" cy="262.202" fill="#ffd064" r="14.696"/></g><g><circle cx="387.696" cy="279.185" fill="#ffd064" r="14.696"/></g><g><circle cx="341.297" cy="325.584" fill="#ffd064" r="14.696"/></g><g><circle cx="324.314" cy="388.965" fill="#ffd064" r="14.696"/></g><g><path d="m511.85 264.73c-.32 9.56-1.16 18.97-2.5 28.23-.76-.28-1.51-.63-2.24-1.05-7.03-4.06-9.44-13.04-5.38-20.07 2.25-3.9 6.01-6.37 10.12-7.11z" fill="#ffd064"/></g></g><g><g><path d="m346.073 466.248c-6.517 2.25-13.924-.36-17.503-6.554-4.06-7.029-1.652-16.021 5.377-20.075 3.828-2.213 8.242-2.506 12.119-1.177-.878.305-1.737.695-2.573 1.177-7.029 4.054-9.437 13.046-5.377 20.075 1.848 3.195 4.72 5.438 7.957 6.554z" fill="#ffc250"/></g><g><path d="m455.849 276.097c-1.494.518-3.103.799-4.773.799-8.114 0-14.692-6.578-14.692-14.698 0-8.114 6.578-14.692 14.692-14.692 1.67 0 3.28.28 4.773.799-5.773 1.975-9.919 7.45-9.919 13.894.001 6.449 4.146 11.923 9.919 13.898z" fill="#ffc250"/></g><g><path d="m392.478 293.082c-6.523 2.25-13.936-.36-17.509-6.554-4.06-7.029-1.652-16.015 5.377-20.075 3.828-2.207 8.236-2.5 12.113-1.17-.878.299-1.738.689-2.567 1.17-7.029 4.06-9.437 13.046-5.377 20.075 1.849 3.201 4.72 5.444 7.963 6.554z" fill="#ffc250"/></g><g><path d="m343.494 338.31c.829.482 1.689.872 2.567 1.171-3.877 1.329-8.285 1.036-12.113-1.171-7.029-4.06-9.437-13.046-5.377-20.075 3.579-6.194 10.986-8.803 17.509-6.554-3.243 1.11-6.115 3.353-7.962 6.554-4.061 7.029-1.653 16.015 5.376 20.075z" fill="#ffc250"/></g><g><path d="m329.089 402.864c-1.494.512-3.103.793-4.773.793-8.12 0-14.698-6.578-14.698-14.692 0-8.12 6.578-14.698 14.698-14.698 1.67 0 3.28.28 4.773.792-5.773 1.981-9.925 7.456-9.925 13.906 0 6.444 4.151 11.918 9.925 13.899z" fill="#ffc250"/></g><g><path d="m511.85 264.72v.01c-.07 2.24-.18 4.47-.31 6.69-.09.14-.18.28-.26.42-2.36 4.09-2.53 8.84-.88 12.9-.3 2.75-.66 5.49-1.05 8.22-.76-.28-1.51-.63-2.24-1.05-7.03-4.06-9.44-13.04-5.38-20.07 2.25-3.9 6.01-6.38 10.12-7.12z" fill="#ffc250"/></g></g></g><g><path d="m192.079 368.67c-3.189 0-5.774-2.585-5.774-5.774v-343.012c0-3.188 2.585-5.774 5.774-5.774s5.774 2.585 5.774 5.774v343.012c0 3.189-2.585 5.774-5.774 5.774z" fill="#ffd064"/><path d="m340.602 282.918c-.98 0-1.972-.249-2.882-.774l-297.057-171.507c-2.762-1.594-3.708-5.125-2.113-7.887 1.594-2.762 5.126-3.708 7.887-2.113l297.057 171.506c2.762 1.594 3.708 5.125 2.113 7.887-1.069 1.852-3.009 2.888-5.005 2.888z" fill="#ffd064"/><path d="m43.556 282.918c-1.995 0-3.936-1.035-5.005-2.888-1.594-2.762-.648-6.293 2.113-7.887l297.057-171.506c2.762-1.594 6.292-.648 7.887 2.113 1.594 2.762.648 6.293-2.113 7.887l-297.058 171.506c-.909.525-1.902.775-2.881.775z" fill="#ffd064"/><circle cx="192.079" cy="191.39" fill="#dd5790" r="133.947"/><path d="m217.717 322.874c-8.298 1.617-16.867 2.458-25.635 2.458-73.977 0-133.95-59.964-133.95-133.942s59.972-133.95 133.95-133.95c8.768 0 17.338.841 25.635 2.458-61.712 11.952-108.306 66.282-108.306 131.492s46.594 119.532 108.306 131.484z" fill="#da387d"/><g fill="#ffd064"><path d="m138.787 104.846c-1.995 0-3.936-1.035-5.005-2.888l-32.456-56.211c-1.594-2.762-.648-6.293 2.113-7.887 2.761-1.595 6.293-.648 7.887 2.113l32.456 56.211c1.594 2.762.648 6.293-2.113 7.887-.909.526-1.902.775-2.882.775z"/><path d="m277.834 345.692c-1.995 0-3.936-1.035-5.005-2.888l-32.448-56.202c-1.594-2.762-.648-6.293 2.113-7.887 2.762-1.594 6.293-.648 7.887 2.113l32.448 56.202c1.594 2.762.648 6.293-2.113 7.887-.909.525-1.902.775-2.882.775z"/><path d="m85.491 197.167h-64.921c-3.189 0-5.774-2.585-5.774-5.774s2.585-5.774 5.774-5.774h64.921c3.189 0 5.774 2.585 5.774 5.774s-2.585 5.774-5.774 5.774z"/><path d="m363.585 197.167h-64.921c-3.189 0-5.774-2.585-5.774-5.774s2.585-5.774 5.774-5.774h64.921c3.189 0 5.774 2.585 5.774 5.774s-2.585 5.774-5.774 5.774z"/><path d="m106.32 345.692c-.98 0-1.972-.249-2.882-.774-2.761-1.594-3.707-5.126-2.113-7.887l32.456-56.211c1.594-2.761 5.125-3.708 7.887-2.113 2.761 1.594 3.707 5.126 2.113 7.887l-32.456 56.211c-1.069 1.851-3.01 2.887-5.005 2.887z"/><path d="m245.376 104.838c-.98 0-1.972-.249-2.882-.774-2.762-1.594-3.708-5.125-2.113-7.887l32.448-56.203c1.594-2.762 5.126-3.708 7.887-2.113 2.762 1.594 3.708 5.125 2.113 7.887l-32.448 56.203c-1.069 1.852-3.01 2.887-5.005 2.887z"/><g><g><circle cx="43.55" cy="277.143" r="19.883"/><circle cx="340.608" cy="105.637" r="19.883"/></g><g><circle cx="192.079" cy="19.884" r="19.883"/><circle cx="192.079" cy="362.896" r="19.883"/></g><g><circle cx="106.326" cy="42.861" r="19.883"/><circle cx="277.832" cy="339.919" r="19.883"/></g><g><circle cx="43.55" cy="105.637" r="19.883"/><circle cx="340.608" cy="277.143" r="19.883"/></g><g><circle cx="20.573" cy="191.39" r="19.883"/><circle cx="363.585" cy="191.39" r="19.883"/></g><g><circle cx="106.326" cy="339.919" r="19.883"/><circle cx="277.832" cy="42.861" r="19.883"/></g></g></g><g fill="#ffc250"><g><path d="m50.012 295.951c-8.817 3.044-18.839-.487-23.68-8.867-5.493-9.51-2.235-21.676 7.275-27.161 5.18-2.994 11.151-3.39 16.397-1.592-1.188.412-2.351.94-3.481 1.592-9.51 5.485-12.768 17.651-7.275 27.161 2.499 4.323 6.384 7.358 10.764 8.867z"/><path d="m347.077 124.44c-8.826 3.044-18.847-.487-23.689-8.867-5.493-9.51-2.235-21.668 7.275-27.161 5.18-2.986 11.151-3.382 16.397-1.584-1.188.404-2.351.932-3.472 1.584-9.51 5.493-12.768 17.651-7.283 27.161 2.499 4.33 6.384 7.365 10.772 8.867z"/></g><g><path d="m198.536 38.684c-2.021.701-4.198 1.081-6.458 1.081-10.978 0-19.878-8.9-19.878-19.886 0-10.979 8.899-19.879 19.878-19.879 2.26 0 4.438.379 6.458 1.081-7.811 2.672-13.42 10.079-13.42 18.798 0 8.726 5.609 16.132 13.42 18.805z"/><path d="m198.536 381.699c-2.021.701-4.198 1.081-6.458 1.081-10.978 0-19.878-8.908-19.878-19.886s8.9-19.886 19.878-19.886c2.26 0 4.438.379 6.458 1.08-7.811 2.681-13.42 10.087-13.42 18.806 0 8.717 5.609 16.124 13.42 18.805z"/></g><g><path d="m112.797 61.663c-8.826 3.044-18.855-.487-23.689-8.867-5.493-9.51-2.235-21.668 7.275-27.161 5.18-2.986 11.143-3.382 16.389-1.584-1.188.404-2.351.932-3.472 1.584-9.51 5.493-12.768 17.651-7.275 27.161 2.499 4.331 6.384 7.366 10.772 8.867z"/><path d="m284.3 358.72c-8.825 3.044-18.847-.487-23.689-8.867-5.493-9.502-2.227-21.668 7.275-27.153 5.18-2.994 11.151-3.39 16.406-1.592-1.188.412-2.351.94-3.481 1.592-9.51 5.485-12.768 17.651-7.283 27.153 2.499 4.33 6.384 7.366 10.772 8.867z"/></g><g><path d="m46.523 122.856c1.122.652 2.285 1.179 3.472 1.584-5.246 1.798-11.209 1.402-16.389-1.584-9.51-5.493-12.768-17.651-7.275-27.161 4.842-8.38 14.863-11.91 23.689-8.867-4.388 1.501-8.273 4.536-10.772 8.867-5.493 9.51-2.235 21.668 7.275 27.161z"/><path d="m343.588 294.359c1.13.652 2.293 1.18 3.481 1.592-5.254 1.798-11.226 1.402-16.406-1.592-9.51-5.493-12.768-17.651-7.275-27.161 4.842-8.38 14.863-11.91 23.68-8.867-4.38 1.509-8.265 4.545-10.764 8.867-5.485 9.51-2.227 21.668 7.284 27.161z"/></g><g><path d="m27.032 210.196c-2.021.693-4.198 1.072-6.458 1.072-10.987 0-19.886-8.9-19.886-19.878 0-10.987 8.9-19.886 19.886-19.886 2.26 0 4.438.379 6.458 1.072-7.811 2.681-13.428 10.087-13.428 18.814.001 8.718 5.617 16.125 13.428 18.806z"/><path d="m370.048 210.187c-2.029.701-4.207 1.081-6.467 1.081-10.978 0-19.878-8.9-19.878-19.878 0-10.987 8.9-19.886 19.878-19.886 2.26 0 4.438.379 6.467 1.08-7.811 2.672-13.428 10.079-13.428 18.806 0 8.718 5.617 16.125 13.428 18.797z"/></g><g><path d="m109.299 357.136c1.122.652 2.285 1.179 3.472 1.584-5.246 1.798-11.209 1.402-16.389-1.584-9.51-5.493-12.768-17.651-7.275-27.161 4.833-8.38 14.863-11.91 23.68-8.867-4.38 1.509-8.265 4.545-10.764 8.867-5.492 9.51-2.234 21.668 7.276 27.161z"/><path d="m280.811 60.079c1.122.651 2.285 1.179 3.472 1.584-5.246 1.798-11.217 1.402-16.397-1.584-9.502-5.493-12.768-17.651-7.275-27.161 4.842-8.38 14.863-11.91 23.689-8.867-4.388 1.501-8.273 4.536-10.772 8.867-5.485 9.51-2.227 21.668 7.283 27.161z"/></g></g></g></g></svg>